<svg width="48" height="48" viewBox="0 0 48 48" fill="none" xmlns="http://www.w3.org/2000/svg">
<circle cx="24" cy="24" r="24" fill="white"/>
<path d="M23.9992 34.5001L23.5192 33.9601C23.2192 33.6601 16.1992 25.3801 16.1992 20.4001C16.1992 16.0801 19.6792 12.6001 23.9992 12.6001C28.3192 12.6001 31.7992 16.0801 31.7992 20.4001C31.7992 25.3801 24.7792 33.6601 24.4792 34.0201L23.9992 34.5001ZM23.9992 13.8001C20.3392 13.8001 17.3992 16.7401 17.3992 20.4001C17.3992 24.2401 22.4392 30.7201 23.9992 32.6401C25.5592 30.7201 30.5992 24.2401 30.5992 20.4001C30.5992 16.7401 27.6592 13.8001 23.9992 13.8001Z" fill="#B19786"/>
<path d="M24 23.3999C22.32 23.3999 21 22.0799 21 20.3999C21 18.7199 22.32 17.3999 24 17.3999C25.68 17.3999 27 18.7199 27 20.3999C27 22.0799 25.68 23.3999 24 23.3999ZM24 18.5999C22.98 18.5999 22.2 19.3799 22.2 20.3999C22.2 21.4199 22.98 22.1999 24 22.1999C25.02 22.1999 25.8 21.4199 25.8 20.3999C25.8 19.3799 25.02 18.5999 24 18.5999Z" fill="#B19786"/>
</svg>
